<svg xmlns="http://www.w3.org/2000/svg" viewBox="0 0 1457 955" width="100%" height="100%" preserveAspectRatio="xMidYMid meet"><defs><clipPath id="win_home"><rect width="1457" height="955" rx="10"/></clipPath></defs><g clip-path="url(#win_home)"><g transform="translate(-171 -104)"><defs><linearGradient id="hdr_home" x1="0" x2="1"><stop offset="0" stop-color="#33206C"/><stop offset="0.45" stop-color="#31205F"/><stop offset="1" stop-color="#2F2150"/></linearGradient><linearGradient id="swirl_home" x1="0" y1="1" x2="1" y2="0"><stop offset="0" stop-color="#1565D8"/><stop offset="1" stop-color="#3FC1F2"/></linearGradient><filter id="sh_home" x="-5%" y="-10%" width="110%" height="130%"><feDropShadow dx="0" dy="1" stdDeviation="1.4" flood-color="#000" flood-opacity="0.08"/></filter></defs>
<rect x="171.00" y="104.00" width="1457.00" height="955.00" rx="0" fill="#F7F7F7" />
<rect x="171.00" y="104.00" width="1457.00" height="55.00" rx="0" fill="#FFFFFF" />
<circle cx="198.00" cy="131.00" r="6" fill="#FF5F57" />
<circle cx="219.00" cy="131.00" r="6" fill="#FEBC2E" />
<circle cx="240.00" cy="131.00" r="6" fill="#28C840" />
<rect x="274.00" y="124.00" width="19.00" height="14.00" rx="2" fill="none" stroke="#555" stroke-width="1.4" />
<line x1="280.00" y1="124.00" x2="280.00" y2="138.00" stroke="#555" stroke-width="1.4" />
<line x1="276.50" y1="128.00" x2="278.00" y2="128.00" stroke="#555" stroke-width="1" />
<line x1="276.50" y1="131.00" x2="278.00" y2="131.00" stroke="#555" stroke-width="1" />
<line x1="276.50" y1="134.00" x2="278.00" y2="134.00" stroke="#555" stroke-width="1" />
<path d="M331 125L325 131L331 137" stroke="#444" stroke-width="1.6" fill="none" stroke-linecap="round" stroke-linejoin="round" />
<path d="M358 125L364 131L358 137" stroke="#B0B0B0" stroke-width="1.6" fill="none" stroke-linecap="round" stroke-linejoin="round" />
<path d="M625 123L632 125.5V131C632 135 629 138 625 139.5C621 138 618 135 618 131V125.5Z" stroke="#555" stroke-width="1.4" fill="none" stroke-linecap="round" stroke-linejoin="round" />
<path d="M625 123L632 125.5V131C632 135 629 138 625 139.5Z" fill="#555"/>
<rect x="652.00" y="117.00" width="495.00" height="29.00" rx="8" fill="#F2F2F2" />
<rect x="793.01" y="129.00" width="8.00" height="7.00" rx="1.2" fill="#777" />
<path d="M794.81421875 129V127A2.2 2.2 0 0 1 799.2142187500001 127V129" stroke="#777" stroke-width="1.3" fill="none" stroke-linecap="round" stroke-linejoin="round" />
<text x="807.01" y="136.00" font-family="Inter, Arial, sans-serif" font-size="11.50" font-weight="400" fill="#3A3A3A" text-anchor="start" >www.appdynamics.com/acme/home</text>
<path d="M1139 131A5 5 0 1 1 1136.5 126.7" stroke="#666" stroke-width="1.3" fill="none" stroke-linecap="round" stroke-linejoin="round" />
<path d="M1135.5 124.3L1137 126.9L1134.2 127.6" stroke="#666" stroke-width="1.3" fill="none" stroke-linecap="round" stroke-linejoin="round" />
<circle cx="1471.00" cy="131.00" r="8" fill="none" stroke="#555" stroke-width="1.4" />
<path d="M1471 126.5V135M1467.5 131.7L1471 135.2L1474.5 131.7" stroke="#555" stroke-width="1.4" fill="none" stroke-linecap="round" stroke-linejoin="round" />
<path d="M1509 128H1507V139.5H1520V128H1518M1513.5 134V122M1510 125.5L1513.5 122L1517 125.5" stroke="#555" stroke-width="1.4" fill="none" stroke-linecap="round" stroke-linejoin="round" />
<path d="M1556 124V138M1549 131H1563" stroke="#555" stroke-width="1.5" fill="none" stroke-linecap="round" stroke-linejoin="round" />
<rect x="1590.00" y="126.00" width="13.00" height="13.00" rx="2.5" fill="none" stroke="#555" stroke-width="1.4" />
<path d="M1593.5 126V123.5H1606.5V135.5H1603" stroke="#555" stroke-width="1.4" fill="none" stroke-linecap="round" stroke-linejoin="round" />
<rect x="171.00" y="159.00" width="1457.00" height="42.00" rx="0" fill="url(#hdr_home)" />
<path transform="translate(187 166.4) scale(1.1667)" fill="#fff" d="M16.331 18.171V17.06l-.022.01c-.25.121-.522.19-.801.203a1.186 1.186 0 01-.806-.237 1.038 1.038 0 01-.352-.498 1.21 1.21 0 01-.023-.667c.052-.225.178-.426.357-.569.16-.134.355-.218.562-.242a1.85 1.85 0 011.061.198l.024.013v-1.117l-.051-.014a2.862 2.862 0 00-1.011-.132 2.34 2.34 0 00-.903.206c-.287.132-.54.327-.739.571a2.221 2.221 0 00-.04 2.705c.295.378.709.645 1.175.756.491.12 1.006.102 1.487-.052l.082-.023M5.336 18.171V17.06l-.022.01c-.25.121-.522.19-.801.203a1.183 1.183 0 01-.806-.237 1.03 1.03 0 01-.351-.498 1.202 1.202 0 01-.024-.667c.052-.225.177-.426.357-.569.16-.134.355-.218.562-.242a1.85 1.85 0 011.061.198l.024.013v-1.117l-.051-.014a2.862 2.862 0 00-1.011-.132 2.344 2.344 0 00-.903.206 2.08 2.08 0 00-.74.571 2.224 2.224 0 00-.041 2.705 2.11 2.11 0 001.176.756c.491.12 1.005.102 1.487-.052l.083-.023M9.26 17.249l-.004.957.07.012c.22.041.441.069.664.085.195.019.391.022.587.012.187-.014.372-.049.551-.104.21-.06.405-.163.571-.305a1.16 1.16 0 00.333-.478 1.31 1.31 0 00-.007-.96 1.068 1.068 0 00-.298-.414 1.261 1.261 0 00-.438-.255l-.722-.268a.388.388 0 01-.197-.188.245.245 0 01.008-.219.382.382 0 01.154-.142.798.798 0 01.257-.074c.153-.022.308-.021.46.005.18.02.358.051.533.096l.038.008v-.883l-.069-.015a4.749 4.749 0 00-.543-.097 2.844 2.844 0 00-.714-.003c-.3.027-.585.143-.821.33-.16.126-.281.293-.351.484-.104.29-.105.608 0 .899.054.145.14.274.252.381.097.093.207.173.327.236.157.084.324.149.497.195.057.017.114.035.17.054l.085.031.024.01c.084.03.162.078.226.14.045.042.08.094.101.151a.325.325 0 01.001.161.339.339 0 01-.166.198.856.856 0 01-.275.086 2.032 2.032 0 01-.427.021 5.208 5.208 0 01-.557-.074 9.195 9.195 0 01-.287-.067l-.033-.006zm-2.475.995h1.05v-4.167h-1.05v4.167zm12.162-2.936a1.095 1.095 0 011.541.158 1.094 1.094 0 01-.157 1.541l-.017.014a1.096 1.096 0 01-1.367-1.713m-1.525.854a2.193 2.193 0 002.666 2.107 2.139 2.139 0 00.701-3.937 2.207 2.207 0 00-3.367 1.83M22.961 10.728a.52.52 0 001.039 0V9.573a.52.52 0 00-1.039 0v1.155M20.117 10.728a.522.522 0 001.041 0V8.139a.521.521 0 00-1.04 0v2.589M17.231 11.771a.521.521 0 001.039 0V6.17a.52.52 0 00-1.039 0v5.601M14.393 10.728a.521.521 0 001.04 0V8.139a.52.52 0 00-1.039 0v2.589M11.494 10.728a.522.522 0 001.039 0V9.573a.52.52 0 00-1.039 0v1.155M8.624 10.728a.52.52 0 001.039 0V8.139a.52.52 0 00-1.039 0v2.589M5.737 11.771a.52.52 0 001.039 0V6.17a.52.52 0 00-1.039 0v5.601M2.876 10.728a.522.522 0 001.04 0V8.139a.52.52 0 00-1.039 0v2.589M0 10.728a.521.521 0 001.039 0V9.573a.52.52 0 00-1.039 0v1.155"/>
<text x="223.00" y="185.50" font-family="Inter, Arial, sans-serif" font-size="14.00" font-weight="400" fill="#FFFFFF" text-anchor="start" >AppDynamics</text>
<circle cx="1418.00" cy="179.00" r="5.5" fill="none" stroke="#fff" stroke-width="1.6" />
<path d="M1421.96 182.96L1426.25 187.25" stroke="#fff" stroke-width="1.6" fill="none" stroke-linecap="round" stroke-linejoin="round" />
<circle cx="1456.00" cy="181.00" r="7.5" fill="none" stroke="#fff" stroke-width="1.5" />
<path d="M1453.8 179.1A2.3 2.3 0 1 1 1457.3 181C1456.4 181.5 1456 182 1456 183.1" stroke="#fff" stroke-width="1.4" fill="none" stroke-linecap="round" stroke-linejoin="round" />
<circle cx="1456.00" cy="185.50" r="0.9" fill="#fff" />
<line x1="1479.00" y1="171.00" x2="1479.00" y2="190.00" stroke="#8A86A8" stroke-width="1" />
<circle cx="1501.00" cy="177.60" r="3.2" fill="none" stroke="#fff" stroke-width="1.4" />
<path d="M1495.2 186.6C1495.2 182.6 1506.8 182.6 1506.8 186.6Z" stroke="#fff" stroke-width="1.4" fill="none" stroke-linecap="round" stroke-linejoin="round" />
<text x="1515.00" y="185.00" font-family="Inter, Arial, sans-serif" font-size="11.50" font-weight="600" fill="#fff" text-anchor="start" >masteradmin</text>
<path d="M1598.5 179.5H1605.5L1602 183.5Z" fill="#fff"/>
<line x1="197.00" y1="223.00" x2="211.00" y2="223.00" stroke="#555" stroke-width="1.4" />
<line x1="197.00" y1="228.50" x2="211.00" y2="228.50" stroke="#555" stroke-width="1.4" />
<line x1="197.00" y1="234.00" x2="211.00" y2="234.00" stroke="#555" stroke-width="1.4" />
<rect x="183.00" y="251.00" width="186.00" height="28.00" rx="3" fill="#EDEDEF" />
<rect x="183.00" y="251.00" width="3.00" height="28.00" rx="1.2" fill="#6D5CE6" />
<text x="225.00" y="269.00" font-family="Inter, Arial, sans-serif" font-size="11.00" font-weight="500" fill="#3A3D40" text-anchor="start" >Overview</text>
<text x="225.00" y="305.00" font-family="Inter, Arial, sans-serif" font-size="11.00" font-weight="500" fill="#3A3D40" text-anchor="start" >Applications</text>
<text x="225.00" y="341.00" font-family="Inter, Arial, sans-serif" font-size="11.00" font-weight="500" fill="#3A3D40" text-anchor="start" >User Experience</text>
<text x="225.00" y="377.00" font-family="Inter, Arial, sans-serif" font-size="11.00" font-weight="500" fill="#3A3D40" text-anchor="start" >Databases</text>
<text x="225.00" y="413.00" font-family="Inter, Arial, sans-serif" font-size="11.00" font-weight="500" fill="#3A3D40" text-anchor="start" >Servers</text>
<text x="225.00" y="450.00" font-family="Inter, Arial, sans-serif" font-size="11.00" font-weight="500" fill="#3A3D40" text-anchor="start" >Analytics</text>
<text x="225.00" y="486.00" font-family="Inter, Arial, sans-serif" font-size="11.00" font-weight="500" fill="#3A3D40" text-anchor="start" >Dashboards &amp; Reports</text>
<text x="225.00" y="522.00" font-family="Inter, Arial, sans-serif" font-size="11.00" font-weight="500" fill="#3A3D40" text-anchor="start" >Alert &amp; Respond</text>
<text x="225.00" y="558.00" font-family="Inter, Arial, sans-serif" font-size="11.00" font-weight="500" fill="#3A3D40" text-anchor="start" >OTel</text>
<rect x="198.00" y="259.00" width="6.00" height="7.50" rx="0.8" fill="#463BAA" />
<rect x="198.00" y="268.00" width="6.00" height="3.00" rx="0.8" fill="#A37AF5" />
<rect x="205.50" y="259.00" width="5.50" height="4.50" rx="0.8" fill="#A37AF5" />
<rect x="205.50" y="265.00" width="5.50" height="6.00" rx="0.8" fill="#463BAA" />
<line x1="204.50" y1="298.98" x2="204.50" y2="296.58" stroke="#A6A8AC" stroke-width="0.9" />
<circle cx="204.50" cy="295.50" r="1.15" fill="#73777A" />
<line x1="204.50" y1="304.02" x2="204.50" y2="306.42" stroke="#A6A8AC" stroke-width="0.9" />
<circle cx="204.50" cy="307.50" r="1.15" fill="#73777A" />
<line x1="202.40" y1="300.11" x2="200.40" y2="298.79" stroke="#A6A8AC" stroke-width="0.9" />
<circle cx="199.50" cy="298.20" r="1.15" fill="#73777A" />
<line x1="206.60" y1="300.11" x2="208.60" y2="298.79" stroke="#A6A8AC" stroke-width="0.9" />
<circle cx="209.50" cy="298.20" r="1.15" fill="#73777A" />
<line x1="202.40" y1="302.89" x2="200.40" y2="304.21" stroke="#A6A8AC" stroke-width="0.9" />
<circle cx="199.50" cy="304.80" r="1.15" fill="#73777A" />
<line x1="206.60" y1="302.89" x2="208.60" y2="304.21" stroke="#A6A8AC" stroke-width="0.9" />
<circle cx="209.50" cy="304.80" r="1.15" fill="#73777A" />
<circle cx="204.50" cy="301.50" r="2.3" fill="none" stroke="#73777A" stroke-width="1.3" />
<circle cx="201.30" cy="334.00" r="2.9" fill="#73777A" />
<path d="M196.6 342.6V340.2C196.6 338.2 198.4 336.9 201 336.9C203.6 336.9 205.4 338.2 205.4 340.2V342.6Z" fill="#73777A"/>
<line x1="203.40" y1="338.00" x2="208.80" y2="338.00" stroke="#B5B7BA" stroke-width="1.1" />
<line x1="203.40" y1="341.00" x2="208.80" y2="341.00" stroke="#B5B7BA" stroke-width="1.1" />
<rect x="198.00" y="367.00" width="3.60" height="3.60" rx="0.5" fill="#73777A" />
<rect x="198.00" y="372.00" width="3.60" height="3.60" rx="0.5" fill="#73777A" />
<rect x="198.00" y="377.00" width="3.60" height="3.60" rx="0.5" fill="#73777A" />
<rect x="203.00" y="372.00" width="3.60" height="3.60" rx="0.5" fill="#A6A8AC" />
<rect x="203.00" y="377.00" width="3.60" height="3.60" rx="0.5" fill="#A6A8AC" />
<rect x="208.00" y="377.00" width="3.60" height="3.60" rx="0.5" fill="#CDCFD1" />
<rect x="199.00" y="403.00" width="12.00" height="3.60" rx="0.6" fill="#73777A" />
<rect x="200.20" y="404.20" width="1.20" height="1.20" rx="0.2" fill="#F7F7F7" />
<rect x="199.00" y="408.00" width="12.00" height="3.60" rx="0.6" fill="#A6A8AC" />
<rect x="200.20" y="409.20" width="1.20" height="1.20" rx="0.2" fill="#F7F7F7" />
<rect x="199.00" y="413.00" width="12.00" height="3.60" rx="0.6" fill="#CDCFD1" />
<rect x="200.20" y="414.20" width="1.20" height="1.20" rx="0.2" fill="#F7F7F7" />
<line x1="198.30" y1="447.60" x2="198.30" y2="452.60" stroke="#CDCFD1" stroke-width="1.8" stroke-linecap="round"/>
<line x1="202.60" y1="443.60" x2="202.60" y2="452.60" stroke="#73777A" stroke-width="1.8" stroke-linecap="round"/>
<line x1="206.50" y1="445.80" x2="206.50" y2="452.60" stroke="#A6A8AC" stroke-width="1.8" stroke-linecap="round"/>
<line x1="210.50" y1="442.20" x2="210.50" y2="452.60" stroke="#73777A" stroke-width="1.8" stroke-linecap="round"/>
<rect x="198.40" y="474.60" width="12.20" height="15.20" rx="2" fill="none" stroke="#73777A" stroke-width="1.3" />
<line x1="201.20" y1="480.20" x2="201.20" y2="482.60" stroke="#A6A8AC" stroke-width="1.1" />
<line x1="203.50" y1="478.20" x2="203.50" y2="482.60" stroke="#73777A" stroke-width="1.1" />
<line x1="205.70" y1="480.20" x2="205.70" y2="482.60" stroke="#A6A8AC" stroke-width="1.1" />
<line x1="208.00" y1="477.80" x2="208.00" y2="482.60" stroke="#73777A" stroke-width="1.1" />
<line x1="201.00" y1="485.20" x2="208.00" y2="485.20" stroke="#A6A8AC" stroke-width="1.1" />
<line x1="201.00" y1="487.60" x2="205.20" y2="487.60" stroke="#A6A8AC" stroke-width="1.1" />
<path d="M199.2 521V516.6A5.3 5.3 0 0 1 209.8 516.6V521L211.0 522.2H198.0Z" fill="#73777A"/>
<line x1="202.60" y1="524.60" x2="206.40" y2="524.60" stroke="#CDCFD1" stroke-width="1.2" stroke-linecap="round"/>
<path d="M209.6 555.6C210.7 557.6 209.3 560.6 204.4 560.6C203 560.6 202.3 560.4 201.6 560.1" fill="none" stroke="#CDCFD1" stroke-width="1.5" stroke-linecap="round"/>
<path d="M196 553C197.9 549.7 200 548.3 202.6 548.3C205.2 548.3 207.3 549.7 209.2 553C207.3 556.3 205.2 557.7 202.6 557.7C200 557.7 197.9 556.3 196 553Z" fill="#F7F7F7" stroke="#73777A" stroke-width="1.8"/>
<circle cx="202.60" cy="553.00" r="2.1" fill="none" stroke="#73777A" stroke-width="1.4" />
<circle cx="203.10" cy="552.50" r="0.8" fill="#73777A" />
<text x="403.28" y="237.03" font-family="Inter, Arial, sans-serif" font-size="17.95" font-weight="600" fill="#2C2E2F" text-anchor="start" >Home</text>
<text x="404.33" y="269.23" font-family="Inter, Arial, sans-serif" font-size="11.82" font-weight="500" fill="#55585B" text-anchor="start" >Overview</text>
<text x="486.68" y="269.23" font-family="Inter, Arial, sans-serif" font-size="11.82" font-weight="500" fill="#55585B" text-anchor="start" >Unified Monitoring</text>
<text x="620.77" y="269.23" font-family="Inter, Arial, sans-serif" font-size="11.82" font-weight="500" fill="#55585B" text-anchor="start" >Getting Started</text>
<text x="737.96" y="269.23" font-family="Inter, Arial, sans-serif" font-size="11.82" font-weight="600" fill="#1E1F20" text-anchor="start" >Agent Management</text>
<rect x="737.96" y="279.26" width="112.36" height="2.53" rx="1" fill="#6B45D8" />
<rect x="403.28" y="300.38" width="1196.22" height="166.82" rx="8" fill="#FFFFFF" stroke="#E2E2E2" stroke-width="1" filter="url(#sh_home)"/>
<text x="421.22" y="332.05" font-family="Inter, Arial, sans-serif" font-size="13.73" font-weight="600" fill="#2C2E2F" text-anchor="start" >Manage Agents</text>
<text x="421.22" y="355.28" font-family="Inter, Arial, sans-serif" font-size="11.09" font-weight="400" fill="#55585B" text-anchor="start" >This is a central agent management space powered by our Smart Agents. Smart Agents manage all your agents and allow you to install, configure, and upgrade them in bulk.</text>
<rect x="421.22" y="379.56" width="103.47" height="25.34" rx="3" fill="#1D69C4" />
<text x="472.96" y="396.46" font-family="Inter, Arial, sans-serif" font-size="10.35" font-weight="600" fill="#fff" text-anchor="middle" >Start monitoring</text>
<line x1="1488.63" y1="323.61" x2="1469.63" y2="363.73" stroke="#EAE3FF" stroke-width="11.613768115942028" stroke-linecap="round"/>
<line x1="1486.52" y1="369.01" x2="1465.41" y2="418.63" stroke="#EAE3FF" stroke-width="11.613768115942028" stroke-linecap="round"/>
<line x1="1567.82" y1="390.12" x2="1559.37" y2="405.96" stroke="#EAE3FF" stroke-width="11.613768115942028" stroke-linecap="round"/>
<line x1="1486.52" y1="369.01" x2="1465.41" y2="418.63" stroke="#E2D8FF" stroke-width="11.613768115942028" stroke-linecap="round"/>
<path d="M1553.04 378.51L1552.77 382.64L1545.84 385.07L1544.77 388.20L1543.31 391.18L1546.49 397.79L1543.76 400.90L1540.65 403.64L1534.03 400.45L1531.06 401.92L1527.92 402.98L1525.50 409.91L1521.36 410.18L1517.23 409.91L1514.81 402.98L1511.67 401.92L1508.69 400.45L1502.08 403.64L1498.97 400.90L1496.24 397.79L1499.42 391.18L1497.95 388.20L1496.89 385.07L1489.96 382.64L1489.69 378.51L1489.96 374.37L1496.89 371.95L1497.95 368.81L1499.42 365.84L1496.24 359.23L1498.97 356.11L1502.08 353.38L1508.69 356.56L1511.67 355.10L1514.81 354.03L1517.23 347.10L1521.36 346.83L1525.50 347.10L1527.92 354.03L1531.06 355.10L1534.03 356.56L1540.65 353.38L1543.76 356.11L1546.49 359.23L1543.31 365.84L1544.77 368.81L1545.84 371.95L1552.77 374.37Z" fill="#fff" stroke="#36393C" stroke-width="3.59" stroke-linejoin="round"/>
<path d="M1537.14 377.13A15.84 15.84 0 1 0 1517.27 393.80" fill="none" stroke="#36393C" stroke-width="3.38"/>
<circle cx="1521.36" cy="378.51" r="10.557971014492754" fill="#7A3CD0" />
<rect x="403.28" y="479.86" width="1196.22" height="219.61" rx="8" fill="#FFFFFF" stroke="#E2E2E2" stroke-width="1" filter="url(#sh_home)"/>
<text x="421.22" y="511.01" font-family="Inter, Arial, sans-serif" font-size="13.20" font-weight="600" fill="#2C2E2F" text-anchor="start" >Learn More</text>
<text x="580.65" y="511.01" font-family="Inter, Arial, sans-serif" font-size="11.61" font-weight="600" fill="#2C2E2F" text-anchor="start" >What is Agent Managment</text>
<line x1="580.65" y1="524.21" x2="1071.59" y2="524.21" stroke="#5A5D60" stroke-width="1.3" />
<text x="580.65" y="546.38" font-family="Inter, Arial, sans-serif" font-size="10.35" font-weight="600" fill="#1D69C4" text-anchor="start" >Agent Management</text>
<text x="580.65" y="561.16" font-family="Inter, Arial, sans-serif" font-size="10.35" font-weight="400" fill="#333" text-anchor="start" >These tools simplify the management of agents, enabling you to automate the agent operations,</text>
<text x="580.65" y="576.47" font-family="Inter, Arial, sans-serif" font-size="10.35" font-weight="400" fill="#333" text-anchor="start" >such as install, upgrade, and rollback.</text>
<line x1="580.65" y1="586.50" x2="1071.59" y2="586.50" stroke="#E5E5E5" stroke-width="1" />
<text x="580.65" y="604.45" font-family="Inter, Arial, sans-serif" font-size="10.35" font-weight="600" fill="#1D69C4" text-anchor="start" >Smart Management of Agents</text>
<text x="580.65" y="619.23" font-family="Inter, Arial, sans-serif" font-size="10.35" font-weight="400" fill="#333" text-anchor="start" >When you have installed Smart Agent, you can perform the</text>
<text x="580.65" y="634.54" font-family="Inter, Arial, sans-serif" font-size="10.35" font-weight="400" fill="#333" text-anchor="start" >following tasks from the Agent Management page on the</text>
<text x="580.65" y="649.85" font-family="Inter, Arial, sans-serif" font-size="10.35" font-weight="400" fill="#333" text-anchor="start" >AppDynamics Controller UI.</text>
<line x1="580.65" y1="659.35" x2="1071.59" y2="659.35" stroke="#E5E5E5" stroke-width="1" />
<text x="580.65" y="678.35" font-family="Inter, Arial, sans-serif" font-size="10.35" font-weight="600" fill="#1D69C4" text-anchor="start" >Get Started</text>
<text x="1090.60" y="511.01" font-family="Inter, Arial, sans-serif" font-size="11.61" font-weight="600" fill="#2C2E2F" text-anchor="start" >What are Smart Agents</text>
<line x1="1090.60" y1="524.21" x2="1581.54" y2="524.21" stroke="#5A5D60" stroke-width="1.3" />
<text x="1090.60" y="546.38" font-family="Inter, Arial, sans-serif" font-size="10.35" font-weight="600" fill="#1D69C4" text-anchor="start" >Smart Agent</text>
<text x="1090.60" y="561.16" font-family="Inter, Arial, sans-serif" font-size="10.35" font-weight="400" fill="#333" text-anchor="start" >Smart Agent allows you to manage the agent operations</text>
<text x="1090.60" y="576.47" font-family="Inter, Arial, sans-serif" font-size="10.35" font-weight="400" fill="#333" text-anchor="start" >(install, upgrade, and rollback) for the supported agents by</text>
<text x="1090.60" y="591.78" font-family="Inter, Arial, sans-serif" font-size="10.35" font-weight="400" fill="#333" text-anchor="start" >using the Controller user interface.</text>
<line x1="1090.60" y1="604.45" x2="1581.54" y2="604.45" stroke="#E5E5E5" stroke-width="1" />
<text x="1090.60" y="625.56" font-family="Inter, Arial, sans-serif" font-size="10.35" font-weight="600" fill="#1D69C4" text-anchor="start" >Get started</text>
<line x1="403.28" y1="999.50" x2="1599.49" y2="999.50" stroke="#DDDDDD" stroke-width="1" />
<text x="403.28" y="1029.00" font-family="Inter, Arial, sans-serif" font-size="8.60" font-weight="400" fill="#444" text-anchor="start" >© 2024 Cisco Systems, Inc.</text>
<text x="1599.49" y="1029.00" font-family="Inter, Arial, sans-serif" font-size="8.60" font-weight="600" fill="#1D69C4" text-anchor="end" >Terms of service</text>
<text x="1517.77" y="1029.00" font-family="Inter, Arial, sans-serif" font-size="8.60" font-weight="600" fill="#1D69C4" text-anchor="end" >Privacy policy</text></g></g></svg>