<svg width="24" height="24" viewBox="0 0 24 24" fill="none" xmlns="http://www.w3.org/2000/svg">
<g clip-path="url(#clip0_5004_1705)">
<path fill-rule="evenodd" clip-rule="evenodd" d="M14.78 11.2701C14.8209 11.2651 14.8603 11.2521 14.8961 11.2318C14.9318 11.2115 14.9632 11.1842 14.9883 11.1517C15.0135 11.1191 15.0319 11.0818 15.0425 11.0421C15.053 11.0023 15.0556 10.9608 15.05 10.9201C15.0472 10.4529 15.1867 9.99598 15.45 9.61007C15.7001 9.23402 15.981 8.87946 16.29 8.55007C16.739 8.03077 17.2164 7.53668 17.72 7.07007C18.0258 7.13779 18.337 7.17795 18.65 7.19007C18.714 7.17782 18.7716 7.14366 18.8131 7.09347C18.8546 7.04328 18.8773 6.98019 18.8773 6.91507C18.8773 6.84995 18.8546 6.78687 18.8131 6.73668C18.7716 6.68649 18.714 6.65232 18.65 6.64007C16.87 6.46007 16.09 5.30007 16.19 4.15007C16.2679 3.51667 16.5889 2.93833 17.0852 2.53717C17.5815 2.136 18.2143 1.94342 18.85 2.00007C19.4234 1.98906 19.9785 2.20242 20.3969 2.59469C20.8153 2.98695 21.064 3.52712 21.09 4.10007C21.1482 4.39426 21.1477 4.69704 21.0887 4.99106C21.0297 5.28508 20.9132 5.56457 20.746 5.81351C20.5788 6.06246 20.3641 6.27598 20.1143 6.44184C19.8644 6.60769 19.5843 6.72263 19.29 6.78007C19.2078 6.79068 19.1331 6.83352 19.0825 6.89915C19.0319 6.96479 19.0094 7.04786 19.02 7.13007C19.0306 7.21229 19.0734 7.28693 19.1391 7.33756C19.2047 7.3882 19.2878 7.41068 19.37 7.40007C19.719 7.3692 20.0586 7.2707 20.37 7.11007C20.6177 7.3876 20.8418 7.6853 21.04 8.00007C21.16 8.18007 21.27 8.36007 21.37 8.54007C21.48 8.73007 21.59 8.92007 21.69 9.11007C21.9328 9.58276 22.1368 10.0744 22.3 10.5801C22.3071 10.6198 22.3222 10.6578 22.3444 10.6916C22.3665 10.7254 22.3953 10.7543 22.4289 10.7768C22.4625 10.7992 22.5003 10.8146 22.54 10.822C22.5797 10.8294 22.6205 10.8288 22.66 10.8201C22.7409 10.8055 22.8127 10.7593 22.8595 10.6918C22.9064 10.6243 22.9246 10.541 22.91 10.4601C22.877 9.87299 22.7729 9.29208 22.6 8.73007C22.5293 8.47721 22.4321 8.23252 22.31 8.00007C22.1781 7.77212 22.024 7.55774 21.85 7.36007C21.5952 7.10276 21.3097 6.87774 21 6.69007C21.3533 6.34212 21.6259 5.9209 21.7987 5.45611C21.9715 4.99133 22.0402 4.4943 22 4.00007C21.9961 3.58733 21.9106 3.17943 21.7484 2.79986C21.5862 2.42029 21.3506 2.07654 21.055 1.78841C20.7595 1.50029 20.4098 1.27346 20.0262 1.121C19.6427 0.968546 19.2327 0.893461 18.82 0.900073C17.9358 0.87261 17.0758 1.1919 16.4237 1.78978C15.7717 2.38767 15.3792 3.21676 15.33 4.10007C15.3138 4.66543 15.4632 5.22319 15.7599 5.70469C16.0567 6.18619 16.4877 6.57042 17 6.81007C16.5742 7.03204 16.1722 7.29673 15.8 7.60007C15.4448 7.90153 15.1379 8.25564 14.89 8.65007C14.6593 8.99073 14.4996 9.37443 14.4206 9.77821C14.3415 10.182 14.3448 10.5976 14.43 11.0001C14.4336 11.0415 14.4457 11.0817 14.4656 11.1182C14.4855 11.1547 14.5128 11.1866 14.5457 11.212C14.5786 11.2374 14.6164 11.2556 14.6567 11.2656C14.6971 11.2756 14.739 11.2772 14.78 11.2701Z" fill="#292e26"/>
<path fill-rule="evenodd" clip-rule="evenodd" d="M8.42 19.8101C8.30023 19.5873 8.1596 19.3763 8 19.1801C7.74877 18.9103 7.46296 18.6749 7.15 18.4801C7.50114 18.1347 7.77257 17.7169 7.9453 17.2557C8.11804 16.7945 8.1879 16.3011 8.15 15.8101C8.14888 15.3926 8.064 14.9797 7.90039 14.5956C7.73678 14.2116 7.49777 13.8643 7.19752 13.5743C6.89726 13.2843 6.54187 13.0575 6.15238 12.9073C5.76289 12.7572 5.34722 12.6867 4.93 12.7001C4.04601 12.6673 3.18461 12.9835 2.53167 13.5803C1.87874 14.1771 1.48664 15.0067 1.44 15.8901C1.4229 16.4543 1.57086 17.0113 1.86573 17.4927C2.1606 17.9741 2.58957 18.3589 3.1 18.6001C2.67425 18.822 2.27218 19.0867 1.9 19.3901C1.54836 19.6923 1.24487 20.0463 0.999999 20.4401C0.767944 20.782 0.60755 21.1674 0.528492 21.573C0.449433 21.9786 0.453348 22.396 0.539999 22.8001C0.544821 22.8406 0.557862 22.8797 0.578324 22.915C0.598786 22.9503 0.626238 22.9811 0.659001 23.0054C0.691765 23.0298 0.72915 23.0472 0.768869 23.0566C0.808588 23.066 0.849805 23.0672 0.889999 23.0601C0.930848 23.0551 0.970307 23.0421 1.00608 23.0218C1.04185 23.0015 1.07321 22.9742 1.09834 22.9416C1.12347 22.9091 1.14187 22.8718 1.15245 22.8321C1.16304 22.7923 1.1656 22.7508 1.16 22.7101C1.1572 22.2429 1.29672 21.786 1.56 21.4001C1.81007 21.024 2.09104 20.6695 2.4 20.3401C2.8516 19.8231 3.32887 19.3292 3.83 18.8601C4.13401 18.9375 4.44629 18.9778 4.76 18.9801C4.82396 18.9678 4.88164 18.9337 4.92313 18.8835C4.96462 18.8333 4.98732 18.7702 4.98732 18.7051C4.98732 18.6399 4.96462 18.5769 4.92313 18.5267C4.88164 18.4765 4.82396 18.4423 4.76 18.4301C3 18.2501 2.24 17.0901 2.34 15.9401C2.40827 15.2994 2.72516 14.7111 3.22256 14.3016C3.71995 13.8921 4.35816 13.6941 5 13.7501C5.57323 13.7499 6.1239 13.9734 6.5348 14.3731C6.9457 14.7728 7.18437 15.317 7.2 15.8901C7.31771 16.4828 7.1953 17.098 6.85966 17.6005C6.52402 18.103 6.00261 18.4518 5.41 18.5701C5.36929 18.5747 5.32988 18.5872 5.29403 18.6071C5.25818 18.6269 5.22658 18.6536 5.20105 18.6856C5.17551 18.7176 5.15654 18.7544 5.1452 18.7938C5.13387 18.8331 5.1304 18.8744 5.135 18.9151C5.1396 18.9558 5.15217 18.9952 5.17199 19.031C5.19182 19.0669 5.21851 19.0985 5.25055 19.124C5.28258 19.1496 5.31933 19.1685 5.3587 19.1799C5.39807 19.1912 5.43929 19.1947 5.48 19.1901C5.82899 19.1592 6.16864 19.0607 6.48 18.9001C6.72769 19.1776 6.9518 19.4753 7.15 19.7901C7.26948 19.9675 7.37963 20.1511 7.48 20.3401C7.59 20.5201 7.7 20.7101 7.8 20.9001C8.04277 21.3728 8.24677 21.8644 8.41 22.3701C8.43964 22.4328 8.48945 22.4837 8.55145 22.5147C8.61346 22.5458 8.68408 22.5552 8.75204 22.5413C8.81999 22.5275 8.88135 22.4913 8.9263 22.4385C8.97125 22.3857 8.9972 22.3194 9 22.2501C8.96701 21.663 8.86291 21.0821 8.69 20.5201C8.62272 20.2754 8.53232 20.0376 8.42 19.8101Z" fill="#292e26"/>
<path fill-rule="evenodd" clip-rule="evenodd" d="M1.79 10.27C2.97742 11.1202 4.41011 11.5592 5.87 11.52C7.92143 11.461 9.96795 11.2874 12 11C12.0373 10.9989 12.0739 10.99 12.1076 10.974C12.1413 10.958 12.1713 10.9352 12.1957 10.907C12.2202 10.8788 12.2385 10.8459 12.2495 10.8102C12.2606 10.7746 12.2642 10.7371 12.26 10.7C12.2575 10.6645 12.2479 10.6299 12.232 10.5981C12.216 10.5663 12.1939 10.538 12.167 10.5147C12.14 10.4915 12.1088 10.4738 12.0749 10.4627C12.0411 10.4516 12.0055 10.4473 11.97 10.45C9.97763 10.6731 7.97479 10.7899 5.97 10.8C4.6975 10.7928 3.46192 10.3716 2.45 9.60004C1.96746 9.13665 1.58872 8.57617 1.33877 7.9556C1.08882 7.33504 0.973354 6.66852 1 6.00004C0.935773 4.66751 1.37078 3.35892 2.22 2.33004C2.81289 1.74244 3.59724 1.38753 4.43 1.33004C5.30335 1.22869 6.18811 1.35263 7 1.69004C7.40108 1.85492 7.76164 2.1048 8.05685 2.42245C8.35206 2.7401 8.57489 3.11798 8.71 3.53004C9.19 4.91004 9.07 6.58004 9.63 7.92004C9.86124 8.46488 10.2299 8.94038 10.7 9.30004C11.3532 9.79593 12.0653 10.2091 12.82 10.53C12.8567 10.5488 12.8968 10.5601 12.9379 10.5633C12.979 10.5664 13.0203 10.5613 13.0594 10.5482C13.0985 10.5352 13.1346 10.5145 13.1656 10.4873C13.1966 10.4602 13.2219 10.4271 13.24 10.39C13.2647 10.3188 13.2643 10.2413 13.2388 10.1703C13.2134 10.0994 13.1644 10.0393 13.1 10C12.388 9.681 11.7166 9.27815 11.1 8.80004C10.7352 8.50088 10.4501 8.11612 10.27 7.68004C9.7 6.00004 10 4.00004 9.21 2.49004C8.7979 1.73943 8.14673 1.14811 7.36 0.810038C6.41714 0.396473 5.38602 0.22462 4.36 0.310038C3.26739 0.380032 2.23557 0.837435 1.45 1.60004C0.432428 2.83321 -0.085052 4.4035 -2.35625e-07 6.00004C-0.0182206 6.79757 0.131759 7.58999 0.440172 8.3257C0.748584 9.06141 1.20851 9.72391 1.79 10.27Z" fill="#292e26"/>
<path fill-rule="evenodd" clip-rule="evenodd" d="M22.55 13.8C21.7777 13.0357 20.7545 12.5773 19.67 12.51C18.6438 12.4194 17.6114 12.5914 16.67 13.01C15.8823 13.3415 15.2301 13.9302 14.82 14.68C13.99 16.2 14.33 18.23 13.72 19.85C13.537 20.3009 13.2408 20.697 12.86 21C12.2437 21.4813 11.5723 21.8875 10.86 22.21C10.787 22.2484 10.7317 22.3136 10.7056 22.3919C10.6796 22.4701 10.6847 22.5554 10.72 22.63C10.7602 22.7012 10.8254 22.755 10.903 22.7809C10.9806 22.8067 11.0651 22.8029 11.14 22.77C11.8931 22.4417 12.6047 22.0254 13.26 21.53C13.7274 21.1718 14.0957 20.7003 14.33 20.16C14.89 18.81 14.77 17.16 15.25 15.76C15.3843 15.3366 15.611 14.9483 15.9136 14.6232C16.2163 14.2981 16.5873 14.0443 17 13.88C17.8036 13.551 18.6774 13.4306 19.54 13.53C20.3728 13.5875 21.1571 13.9424 21.75 14.53C22.6044 15.5498 23.0499 16.8505 23 18.18C23.0348 18.8353 22.9337 19.4907 22.7031 20.105C22.4725 20.7194 22.1174 21.2794 21.66 21.75C20.6472 22.5186 19.4115 22.9364 18.14 22.94C16.1349 22.9397 14.1315 22.8228 12.14 22.59C12.0995 22.5822 12.0578 22.5835 12.0178 22.5937C11.9779 22.604 11.9407 22.6229 11.9089 22.6492C11.8771 22.6754 11.8516 22.7084 11.834 22.7457C11.8164 22.783 11.8073 22.8237 11.8073 22.865C11.8073 22.9062 11.8164 22.9469 11.834 22.9842C11.8516 23.0216 11.8771 23.0545 11.9089 23.0808C11.9407 23.1071 11.9779 23.126 12.0178 23.1362C12.0578 23.1465 12.0995 23.1477 12.14 23.14C14.1612 23.443 16.1977 23.6333 18.24 23.71C19.6999 23.7491 21.1326 23.3102 22.32 22.46C22.8803 21.9054 23.3191 21.2402 23.6083 20.5068C23.8976 19.7734 24.031 18.9878 24 18.2C24.089 16.6029 23.5711 15.0312 22.55 13.8Z" fill="#292e26"/>
<path fill-rule="evenodd" clip-rule="evenodd" d="M4.48 4.63008H5H5.52H6.77C6.85354 4.64334 6.93893 4.62288 7.00738 4.57318C7.07583 4.52348 7.12174 4.44863 7.135 4.36508C7.14826 4.28154 7.12779 4.19615 7.07809 4.1277C7.02839 4.05925 6.95354 4.01334 6.87 4.00008C6.45 3.87008 6.04 3.74008 5.61 3.65008C5.42557 3.61141 5.23827 3.58799 5.05 3.58008C4.86029 3.5651 4.6697 3.5651 4.48 3.58008C4.03756 3.64061 3.60214 3.74444 3.18 3.89008C3.14335 3.90007 3.10922 3.91768 3.07984 3.94177C3.05046 3.96585 3.02649 3.99586 3.0095 4.02983C2.99251 4.06381 2.98288 4.10099 2.98125 4.13895C2.97961 4.1769 2.986 4.21477 3 4.25008C3.00997 4.3227 3.04802 4.38852 3.10599 4.43339C3.16395 4.47826 3.23719 4.49862 3.31 4.49008C3.68 4.50008 4.07 4.59008 4.48 4.63008Z" fill="#9c4e3b"/>
<path fill-rule="evenodd" clip-rule="evenodd" d="M17.23 16.8501H18.48H19H19.52C19.93 16.8501 20.32 16.7201 20.75 16.7001C20.7887 16.7107 20.8292 16.7129 20.8687 16.7065C20.9083 16.7001 20.9461 16.6852 20.9794 16.663C21.0128 16.6407 21.041 16.6116 21.0621 16.5775C21.0832 16.5434 21.0967 16.5052 21.1018 16.4654C21.1069 16.4256 21.1033 16.3852 21.0914 16.347C21.0795 16.3087 21.0595 16.2734 21.0328 16.2435C21.0061 16.2136 20.9733 16.1898 20.9366 16.1737C20.8998 16.1575 20.8601 16.1495 20.82 16.1501C20.3982 16.0033 19.9627 15.8994 19.52 15.8401C19.3303 15.8251 19.1397 15.8251 18.95 15.8401C18.7622 15.8536 18.5753 15.8769 18.39 15.9101C17.9634 16.0056 17.5427 16.1258 17.13 16.2701C17.0485 16.2848 16.9759 16.3305 16.9274 16.3977C16.8789 16.4648 16.8583 16.5481 16.87 16.6301C16.8912 16.7054 16.94 16.77 17.0068 16.8108C17.0736 16.8516 17.1533 16.8656 17.23 16.8501Z" fill="#9c4e3b"/>
<path fill-rule="evenodd" clip-rule="evenodd" d="M2.74 7.40006C2.74819 7.43505 2.76328 7.46806 2.7844 7.49715C2.80551 7.52623 2.83222 7.55081 2.86295 7.56944C2.89369 7.58806 2.92783 7.60037 2.96339 7.60563C2.99894 7.61088 3.03519 7.60899 3.07 7.60006H4.48H5.08L5.68 7.54006L7.11 7.36006C7.15071 7.36139 7.19129 7.35469 7.22941 7.34033C7.26754 7.32598 7.30246 7.30424 7.33218 7.27638C7.36189 7.24852 7.38583 7.21508 7.40262 7.17796C7.4194 7.14084 7.42871 7.10078 7.43 7.06006C7.43133 7.01934 7.42463 6.97877 7.41027 6.94064C7.39591 6.90252 7.37418 6.8676 7.34632 6.83788C7.31846 6.80816 7.28501 6.78423 7.2479 6.76744C7.21078 6.75066 7.17071 6.74135 7.13 6.74006C6.64368 6.65091 6.153 6.58748 5.66 6.55006C5.44693 6.53507 5.23307 6.53507 5.02 6.55006C4.80791 6.55635 4.59693 6.58314 4.39 6.63006C3.91357 6.7316 3.44807 6.87895 3 7.07006C2.96032 7.07225 2.92156 7.08286 2.8863 7.10119C2.85103 7.11951 2.82008 7.14513 2.79548 7.17635C2.77089 7.20757 2.75322 7.24366 2.74365 7.28223C2.73409 7.3208 2.73284 7.36097 2.74 7.40006Z" fill="#9c4e3b"/>
<path fill-rule="evenodd" clip-rule="evenodd" d="M16.57 19.2401C16.5713 19.2817 16.5809 19.3226 16.5983 19.3604C16.6157 19.3982 16.6405 19.4321 16.6713 19.4601C16.7021 19.4881 16.7382 19.5096 16.7775 19.5233C16.8168 19.5371 16.8585 19.5428 16.9 19.5401L18.32 19.72L18.92 19.7801H19.52H20.93C21.0015 19.795 21.0761 19.7815 21.1377 19.7422C21.1994 19.703 21.2433 19.6412 21.26 19.57C21.2689 19.5352 21.2708 19.499 21.2656 19.4634C21.2603 19.4279 21.248 19.3937 21.2294 19.363C21.2107 19.3323 21.1862 19.3056 21.1571 19.2844C21.128 19.2633 21.095 19.2482 21.06 19.2401C20.5966 19.039 20.1142 18.8849 19.62 18.7801C19.41 18.7801 19.2 18.7201 18.98 18.7001C18.76 18.6801 18.56 18.7001 18.35 18.7001C17.8569 18.7368 17.3662 18.8003 16.88 18.89C16.8362 18.8912 16.7931 18.9014 16.7533 18.9199C16.7136 18.9385 16.6781 18.9649 16.649 18.9978C16.62 19.0306 16.598 19.069 16.5844 19.1107C16.5708 19.1524 16.5659 19.1964 16.57 19.2401Z" fill="#9c4e3b"/>
</g>
<defs>
<clipPath id="clip0_5004_1705">
<rect width="24" height="24" fill="white"/>
</clipPath>
</defs>
</svg>
